# xmcd
# 
# Track frame offsets:
#     150
#     38057
#     81730
#     120431
#     164466
#     203383
# 
# Disc length: 3290
# 
# Revision: 1
# Processed by: cddbd v1.5.2PL0 Copyright (c) Steve Scherf et al.
# Submitted via: fre:ac v1.0.31
# 
DISCID=450cd806
DTITLE=Friedrich Dürrenmatt - Der Prozess um des Esels Schatten [CD1]
DYEAR=2010
DGENRE=Hörspiel
TTITLE0=Ich bin Struthion, der Zahnarzt
TTITLE1=Wer von euch beiden ist eigentlich der Kläger?
TTITLE2=So. Ein Wissenschaftler nennt sich dieser schmierige Zahnarzt
TTITLE3=He, Peleias, mach auf
TTITLE4=Nun ist das Schiff verschwunden, wie immer
TTITLE5=Ich bitte, Assessor Miltias nicht zu unterbrechen
EXTD=YEAR: 2010
EXTT0=
EXTT1=
EXTT2=
EXTT3=
EXTT4=
EXTT5=
PLAYORDER=
